<svg viewBox="0 0 512 512.00024" xmlns="http://www.w3.org/2000/svg"><path d="m76.445312 333.851562-35.570312 35.570313-40.625 134.957031c-.625 2.085938-.058594 4.347656 1.484375 5.886719 1.539063 1.542969 3.800781 2.109375 5.886719 1.484375l134.957031-40.625 35.566406-35.570312zm0 0" fill="#fa9f6a"/><path d="m82.066406 339.476562-5.621094-5.625-35.570312 35.570313-40.625 134.957031c-.625 2.085938-.058594 4.347656 1.484375 5.886719 1.539063 1.539063 3.800781 2.109375 5.886719 1.480469l25.183594-7.578125zm0 0" fill="#eb8f59"/><path d="m18.628906 443.324219-18.378906 61.054687c-.625 2.085938-.058594 4.347656 1.484375 5.886719 1.539063 1.539063 3.800781 2.109375 5.886719 1.480469l61.054687-18.375zm0 0" fill="#596674"/><path d="m43.640625 468.335938-25.011719-25.011719-18.378906 61.054687c-.625 2.085938-.058594 4.347656 1.484375 5.886719 1.539063 1.539063 3.800781 2.109375 5.886719 1.480469l25.238281-7.59375zm0 0" fill="#565c62"/><path d="m142.578125 471.125-7.820313-44.417969-49.464843-49.464843-44.417969-7.820313 297.332031-297.332031 101.703125 101.703125zm0 0" fill="#46926f"/><path d="m364.324219 98.210938 49.464843 49.464843-279.03125 279.03125-43.03125-6.433593-6.433593-43.03125zm0 0" fill="#58b78c"/><path d="m448.246094 165.457031-101.703125-101.703125 56.96875-56.964844c9.046875-9.050781 23.722656-9.050781 32.773437 0l68.925782 68.925782c9.050781 9.050781 9.050781 23.722656 0 32.773437zm0 0" fill="#fd6f71"/><path d="m461.292969 31.796875-25.007813-25.007813c-9.050781-9.050781-23.726562-9.050781-32.773437 0l-56.96875 56.964844 25.007812 25.011719 56.96875-56.96875c9.050781-9.050781 23.726563-9.050781 32.773438 0zm0 0" fill="#e36465"/><path d="m406.097656 202.328125-96.425781-96.425781c-4.679687-4.683594-4.679687-12.269532 0-16.949219l37.558594-37.558594c4.679687-4.683593 12.269531-4.683593 16.949219 0l96.425781 96.425781c4.683593 4.679688 4.683593 12.269532 0 16.949219l-37.558594 37.558594c-4.679687 4.679687-12.265625 4.679687-16.949219 0zm0 0" fill="#d9d7d8"/><path d="m334.679688 113.960938 37.558593-37.558594c4.683594-4.679688 12.269531-4.679688 16.953125 0l-25.011718-25.011719c-4.679688-4.679687-12.269532-4.679687-16.949219 0l-37.558594 37.558594c-4.679687 4.683593-4.679687 12.269531 0 16.953125l25.007813 25.007812c-4.679688-4.679687-4.679688-12.269531 0-16.949218zm0 0" fill="#bab8b9"/></svg>