<!DOCTYPE svg PUBLIC "-//W3C//DTD SVG 20010904//EN" "http://www.w3.org/TR/2001/REC-SVG-20010904/DTD/svg10.dtd">
<svg version="1.0" xmlns="http://www.w3.org/2000/svg" width="70px" height="87px" viewBox="0 0 700 870" preserveAspectRatio="xMidYMid meet">
<g id="layer101" fill="#263037" stroke="none">
<path d="M80 841 c0 -26 43 -118 65 -137 13 -12 21 -25 18 -28 -3 -3 6 -21 21 -40 27 -36 35 -76 15 -76 -7 0 -27 17 -45 38 -44 50 -43 22 2 -39 29 -40 40 -48 59 -43 20 5 23 1 29 -30 4 -20 11 -36 17 -36 6 0 7 -5 2 -12 -4 -7 -15 -33 -23 -58 -12 -36 -23 -49 -52 -62 l-38 -18 20 -35 c11 -20 20 -41 20 -47 0 -16 -29 11 -46 43 -12 24 -12 30 1 43 17 16 18 25 7 44 -10 15 -72 -3 -72 -21 0 -20 17 -40 28 -33 5 3 12 -8 16 -25 7 -37 57 -89 85 -89 24 0 27 -10 9 -28 -15 -15 -4 -26 18 -18 10 4 14 13 11 26 -9 33 36 60 99 60 45 0 56 -4 68 -23 9 -12 39 -40 68 -62 29 -22 59 -46 67 -53 19 -19 88 -52 106 -52 11 0 15 6 12 18 -3 9 -8 38 -12 65 -3 26 -10 47 -16 47 -5 0 -9 13 -9 28 0 15 -17 64 -39 108 -51 105 -136 211 -220 276 -29 22 -33 29 -22 42 11 13 7 24 -25 70 -45 64 -67 64 -29 1 33 -57 15 -69 -30 -20 -19 20 -35 41 -35 46 0 6 -4 8 -9 5 -5 -3 -12 5 -15 18 -8 31 -126 132 -126 107z m200 -491 c0 -36 -4 -52 -15 -57 -23 -8 -30 4 -17 30 6 12 13 34 16 50 10 42 16 32 16 -23z m82 -95 c4 -7 -13 -11 -49 -11 -30 0 -49 2 -42 4 22 7 39 34 39 60 0 24 1 23 23 -9 13 -19 26 -39 29 -44z"/>
</g>
<g id="layer102" fill="#522a3a" stroke="none">
<path d="M80 841 c0 -26 43 -118 65 -137 13 -12 21 -25 18 -28 -3 -3 6 -21 21 -40 27 -36 35 -76 15 -76 -7 0 -27 17 -45 38 -44 50 -43 22 2 -39 29 -40 40 -48 59 -43 20 5 23 1 29 -30 4 -20 11 -36 16 -36 5 0 2 -12 -5 -27 -8 -15 -17 -46 -20 -68 -6 -33 -10 -40 -31 -41 -13 -1 -31 -5 -40 -8 -15 -6 -15 -8 1 -26 10 -11 14 -20 10 -20 -5 0 -4 -5 3 -12 7 -7 12 -18 12 -26 0 -12 -3 -12 -16 -1 -20 17 -45 65 -37 73 4 3 1 6 -5 6 -40 0 17 -100 65 -114 28 -9 32 -13 26 -34 -4 -18 -2 -23 8 -20 8 3 14 15 14 27 1 38 40 61 101 61 45 0 56 -4 68 -23 9 -12 39 -40 68 -62 29 -22 59 -46 67 -53 19 -19 88 -52 106 -52 11 0 15 6 12 18 -3 9 -8 38 -12 65 -3 26 -10 47 -16 47 -5 0 -9 13 -9 28 0 15 -17 64 -39 108 -51 105 -136 211 -220 276 -29 22 -33 29 -22 42 11 13 7 24 -25 70 -45 64 -67 64 -29 1 33 -57 15 -69 -30 -20 -19 20 -35 41 -35 46 0 6 -4 8 -9 5 -5 -3 -12 5 -15 18 -8 31 -126 132 -126 107z m200 -491 c0 -36 -4 -52 -15 -57 -23 -8 -30 4 -17 30 6 12 13 34 16 50 10 42 16 32 16 -23z m82 -95 c4 -7 -13 -11 -49 -11 -30 0 -49 2 -42 4 22 7 39 34 39 60 0 24 1 23 23 -9 13 -19 26 -39 29 -44z"/>
</g>
<g id="layer103" fill="#343c50" stroke="none">
<path d="M80 841 c0 -26 43 -118 65 -137 13 -12 21 -25 18 -28 -3 -3 6 -21 21 -40 27 -36 35 -76 15 -76 -7 0 -27 17 -45 38 -44 50 -43 22 2 -39 29 -40 40 -48 59 -43 20 5 23 1 29 -30 4 -20 12 -36 18 -36 6 0 8 -14 4 -37 -5 -28 -4 -34 3 -23 8 11 11 2 11 -37 0 -39 -4 -55 -17 -62 -16 -9 -16 -10 -2 -11 20 0 29 20 29 66 0 19 4 34 8 34 8 0 6 -52 -4 -98 -6 -29 -47 -27 -53 3 -5 27 -21 35 -51 28 -39 -9 -42 -14 -24 -34 9 -10 13 -19 9 -19 -5 0 -4 -5 3 -12 7 -7 12 -18 12 -26 0 -12 -3 -12 -16 -1 -20 17 -45 65 -37 73 4 3 1 6 -5 6 -40 0 17 -100 65 -114 28 -9 32 -13 26 -34 -4 -18 -2 -23 8 -20 8 3 14 15 14 27 1 38 40 61 101 61 45 0 56 -4 68 -23 9 -12 39 -40 68 -62 29 -22 59 -46 67 -53 19 -19 88 -52 106 -52 11 0 15 6 12 18 -3 9 -8 38 -12 65 -3 26 -10 47 -16 47 -5 0 -9 13 -9 28 0 15 -17 64 -39 108 -51 105 -136 211 -220 276 -29 22 -33 29 -22 42 11 13 7 24 -25 70 -45 64 -67 64 -29 1 33 -57 15 -69 -30 -20 -19 20 -35 41 -35 46 0 6 -4 8 -9 5 -5 -3 -12 5 -15 18 -8 31 -126 132 -126 107z m125 -151 c3 -5 4 -10 1 -10 -3 0 -8 5 -11 10 -3 6 -4 10 -1 10 3 0 8 -4 11 -10z m30 -30 c3 -5 4 -10 1 -10 -3 0 -8 5 -11 10 -3 6 -4 10 -1 10 3 0 8 -4 11 -10z m127 -405 c4 -7 -13 -11 -49 -11 -30 0 -49 2 -42 4 22 7 39 34 39 60 0 24 1 23 23 -9 13 -19 26 -39 29 -44z"/>
<path d="M248 347 c-3 -19 -2 -25 4 -19 6 6 8 18 6 28 -3 14 -5 12 -10 -9z"/>
</g>
<g id="layer104" fill="#425565" stroke="none">
<path d="M276 733 c-3 -3 5 -26 19 -49 24 -42 23 -61 -4 -45 -7 5 -21 6 -31 4 -12 -3 -24 3 -32 16 -7 12 -18 21 -25 21 -17 0 -16 -10 2 -30 16 -18 10 -90 -8 -90 -5 0 -25 17 -43 38 -44 50 -43 22 2 -39 29 -40 40 -48 59 -43 20 5 23 1 29 -30 4 -20 12 -36 18 -36 6 0 8 -14 4 -37 -5 -28 -4 -34 3 -23 8 11 11 3 13 -35 1 -44 2 -45 5 -12 6 56 18 45 16 -15 0 -29 1 -40 4 -25 l4 28 29 -43 c16 -23 28 -44 26 -45 -7 -8 -75 11 -69 20 3 6 1 7 -5 3 -9 -5 -8 -12 1 -26 9 -15 23 -20 59 -20 38 0 50 -4 62 -23 9 -12 39 -40 68 -62 29 -22 59 -46 67 -53 19 -19 88 -52 106 -52 11 0 15 6 12 18 -3 9 -8 38 -12 64 -3 27 -10 48 -16 48 -5 0 -9 13 -9 28 0 15 -17 64 -39 108 -51 105 -136 211 -220 276 -29 22 -33 29 -22 42 11 13 9 21 -10 48 -43 62 -56 77 -63 71z m264 -499 c0 -27 -34 -24 -56 3 -28 34 -29 39 -6 52 13 8 22 4 39 -17 12 -15 22 -32 23 -38z"/>
<path d="M263 233 c4 -3 10 -3 14 0 3 4 0 7 -7 7 -7 0 -10 -3 -7 -7z"/>
</g>
<g id="layer105" fill="#8b533b" stroke="none">
<path d="M208 273 c3 -31 2 -36 -9 -25 -7 6 -18 12 -23 12 -6 -1 2 -11 18 -24 23 -19 29 -32 29 -65 0 -42 21 -55 23 -15 1 10 4 26 8 35 8 18 -24 111 -40 116 -6 2 -8 -11 -6 -34z"/>
</g>
<g id="layer106" fill="#b16f71" stroke="none">
<path d="M276 733 c-3 -3 5 -26 19 -49 25 -42 23 -61 -5 -44 -9 5 -19 5 -26 -1 -8 -7 -18 -2 -32 16 -11 14 -25 25 -31 25 -16 0 -14 -8 9 -38 14 -17 17 -29 10 -36 -5 -5 -10 -18 -10 -28 0 -28 -20 -21 -56 20 -44 50 -43 22 2 -39 29 -40 40 -48 59 -43 19 5 23 1 29 -30 4 -19 12 -36 18 -38 6 -2 12 -15 13 -28 4 -39 4 -40 18 -37 6 1 11 -4 9 -11 -2 -13 26 -70 55 -110 l16 -24 -38 8 c-30 5 -37 4 -33 -7 3 -9 23 -15 51 -17 36 -2 51 -9 62 -25 8 -12 38 -40 67 -62 29 -22 59 -46 67 -53 19 -19 88 -52 106 -52 11 0 15 6 12 18 -3 9 -8 38 -12 64 -3 27 -10 48 -16 48 -5 0 -9 13 -9 28 0 15 -17 64 -39 108 -51 105 -136 211 -220 276 -29 22 -33 29 -22 42 11 13 9 21 -10 48 -43 62 -56 77 -63 71z m264 -499 c0 -27 -34 -24 -56 3 -28 34 -29 39 -6 52 13 8 22 4 39 -17 12 -15 22 -32 23 -38z"/>
<path d="M208 273 c3 -31 2 -36 -9 -25 -7 6 -18 12 -23 12 -6 -1 1 -11 16 -23 24 -20 32 -41 37 -100 1 -5 6 -5 11 -2 6 4 10 14 9 23 -1 10 1 24 5 33 8 18 -24 111 -40 116 -6 2 -8 -11 -6 -34z"/>
<path d="M120 285 c0 -25 30 -76 40 -70 5 3 1 20 -10 37 -10 17 -17 35 -14 40 3 4 0 8 -5 8 -6 0 -11 -7 -11 -15z"/>
</g>
<g id="layer107" fill="#ee6a64" stroke="none">
<path d="M280 726 c0 -4 10 -25 22 -46 25 -42 21 -58 -10 -41 -13 7 -22 7 -31 -2 -9 -9 -17 -5 -36 18 -27 33 -34 22 -9 -14 12 -17 13 -26 5 -34 -6 -6 -11 -21 -11 -34 0 -32 -13 -29 -50 13 -44 50 -48 37 -5 -19 29 -38 40 -46 63 -43 25 2 27 0 28 -31 0 -19 6 -38 14 -43 7 -4 14 -18 15 -31 4 -38 4 -39 18 -36 6 1 11 -4 9 -11 -2 -13 26 -70 55 -110 l16 -24 -38 8 c-30 5 -37 4 -33 -7 3 -9 23 -15 51 -17 36 -2 51 -9 62 -25 8 -12 38 -40 67 -62 29 -22 59 -45 66 -52 12 -12 98 -53 110 -53 10 0 -7 125 -17 128 -6 2 -11 16 -11 31 0 37 -69 176 -118 236 -96 119 -98 121 -118 105 -15 -11 -16 -11 -7 0 10 11 9 17 -4 32 -9 10 -23 18 -31 18 -11 0 -13 8 -8 31 4 24 0 39 -21 67 -36 50 -43 57 -43 48z m260 -492 c0 -27 -34 -24 -56 3 -28 34 -29 39 -6 52 13 8 22 4 39 -17 12 -15 22 -32 23 -38z"/>
</g>
<g id="layer108" fill="#efaf42" stroke="none">
<path d="M80 841 c0 -27 44 -119 66 -138 21 -19 28 -21 44 -10 32 19 23 47 -27 95 -54 49 -83 68 -83 53z"/>
</g>
<g id="layer109" fill="#fbe41f" stroke="none">
<path d="M115 789 c12 -38 45 -99 53 -99 5 0 17 6 28 14 19 14 18 15 -6 41 -14 15 -38 36 -54 47 l-28 21 7 -24z"/>
</g>
<g id="layer110" fill="#e4a897" stroke="none">
<path d="M262 637 c-9 -10 -8 -18 3 -33 16 -22 19 -34 7 -34 -5 0 -15 11 -22 25 -12 22 -16 24 -28 11 -10 -10 -13 -25 -8 -50 4 -20 10 -36 14 -36 17 0 113 73 109 83 -2 7 -17 20 -34 30 -25 14 -32 15 -41 4z"/>
<path d="M291 544 c-47 -32 -52 -39 -46 -62 4 -15 8 -28 10 -30 2 -2 32 17 66 42 35 25 67 46 73 46 5 0 1 9 -9 20 -24 27 -32 26 -94 -16z"/>
<path d="M338 492 c-67 -47 -68 -48 -59 -105 0 -4 7 -6 14 -5 6 2 11 -3 9 -10 -2 -13 26 -70 55 -110 l16 -24 -38 8 c-30 5 -37 4 -33 -7 3 -9 23 -15 51 -17 36 -2 51 -9 62 -25 17 -27 107 -97 124 -97 7 0 30 12 52 27 52 38 51 67 -6 179 -39 77 -149 224 -172 231 -4 1 -38 -19 -75 -45z m202 -258 c0 -27 -34 -24 -56 3 -28 34 -29 39 -6 52 13 8 22 4 39 -17 12 -15 22 -32 23 -38z"/>
<path d="M207 283 c12 -82 27 -143 35 -143 5 0 8 8 7 18 -1 9 1 24 5 33 4 9 -1 37 -11 64 -20 55 -43 72 -36 28z"/>
<path d="M120 286 c0 -25 29 -78 40 -71 5 3 -1 22 -12 43 -28 48 -28 48 -28 28z"/>
</g>
<g id="layer111" fill="#b5dedf" stroke="none">
<path d="M261 637 c-8 -10 -6 -19 5 -36 22 -31 7 -41 -16 -11 -26 34 -44 16 -35 -34 4 -20 10 -36 13 -36 8 0 112 72 112 78 0 6 -28 28 -51 42 -12 7 -20 6 -28 -3z"/>
<path d="M295 544 c-56 -39 -59 -42 -48 -73 8 -21 10 -20 71 24 35 26 69 44 75 42 7 -2 -18 -24 -55 -48 -67 -45 -68 -45 -59 -102 0 -4 7 -6 14 -5 6 2 11 -3 9 -10 -3 -15 22 -64 52 -106 51 -69 158 -166 184 -166 8 0 31 12 53 27 30 22 39 35 39 59 0 40 -67 176 -121 244 -53 67 -138 150 -153 149 -6 0 -33 -16 -61 -35z m245 -310 c0 -27 -34 -24 -56 3 -28 34 -29 39 -6 52 13 8 22 4 39 -17 12 -15 22 -32 23 -38z"/>
<path d="M302 238 c6 -18 25 -20 31 -3 5 10 0 15 -14 15 -12 0 -19 -5 -17 -12z"/>
<path d="M142 231 c4 -13 18 -16 19 -4 0 4 -5 9 -11 12 -7 2 -11 -2 -8 -8z"/>
</g>
<g id="layer112" fill="#fac1ba" stroke="none">
<path d="M215 600 c-5 -8 2 -55 12 -73 5 -8 25 3 61 31 l24 18 -29 19 c-24 16 -26 16 -14 2 8 -10 10 -21 6 -25 -4 -4 -14 3 -22 16 -17 24 -28 28 -38 12z"/>
<path d="M280 534 c-19 -13 -35 -29 -34 -34 1 -6 2 -17 3 -25 2 -22 15 -19 66 17 50 36 54 43 26 58 -24 12 -19 14 -61 -16z"/>
<path d="M320 477 c-37 -26 -44 -37 -42 -58 2 -16 11 -29 22 -32 13 -3 17 -11 14 -24 -9 -33 76 -147 168 -224 l47 -40 34 22 33 22 -24 66 c-13 36 -37 91 -53 122 -36 67 -125 179 -142 178 -7 0 -32 -14 -57 -32z m220 -243 c0 -27 -34 -24 -56 3 -28 34 -29 39 -6 52 13 8 22 4 39 -17 12 -15 22 -32 23 -38z"/>
<path d="M140 230 c0 -5 5 -10 10 -10 6 0 10 5 10 10 0 6 -4 10 -10 10 -5 0 -10 -4 -10 -10z"/>
<path d="M313 233 c4 -3 10 -3 14 0 3 4 0 7 -7 7 -7 0 -10 -3 -7 -7z"/>
</g>
<g id="layer113" fill="#f7faf8" stroke="none">
<path d="M215 600 c-4 -6 -1 -26 5 -45 11 -34 12 -34 35 -19 l24 16 -21 29 c-23 31 -33 35 -43 19z"/>
<path d="M277 580 c6 -21 18 -26 28 -11 3 6 -3 15 -14 20 -16 9 -18 8 -14 -9z"/>
<path d="M278 532 c-28 -20 -36 -32 -31 -47 3 -11 7 -22 8 -23 5 -6 105 62 105 70 0 6 -34 29 -42 28 -2 -1 -20 -13 -40 -28z"/>
<path d="M323 478 c-48 -35 -60 -81 -24 -91 14 -3 18 -11 15 -24 -9 -33 76 -147 168 -224 l47 -40 34 22 33 22 -24 66 c-13 36 -37 91 -53 122 -36 66 -125 179 -142 179 -7 -1 -31 -15 -54 -32z m217 -244 c0 -27 -34 -24 -56 3 -28 34 -29 39 -6 52 13 8 22 4 39 -17 12 -15 22 -32 23 -38z"/>
<path d="M205 293 c2 -10 7 -39 10 -65 5 -36 10 -45 23 -43 21 3 20 36 -2 88 -15 38 -37 51 -31 20z"/>
<path d="M145 230 c-3 -5 -1 -10 4 -10 6 0 11 5 11 10 0 6 -2 10 -4 10 -3 0 -8 -4 -11 -10z"/>
</g>


</svg>